<?xml version="1.0" standalone="no"?>
<!DOCTYPE svg PUBLIC "-//W3C//DTD SVG 20010904//EN"
 "http://www.w3.org/TR/2001/REC-SVG-20010904/DTD/svg10.dtd">
<svg version="1.0" xmlns="http://www.w3.org/2000/svg"
 width="1920.000000pt" height="1080.000000pt" viewBox="0 0 1920.000000 1080.000000"
 preserveAspectRatio="xMidYMid meet">

<g transform="translate(0.000000,1080.000000) scale(0.100000,-0.100000)"
fill="#000000" stroke="none">
<path d="M0 8216 l0 -2585 43 19 c111 49 204 65 382 65 201 0 257 -12 412 -85
129 -61 221 -130 348 -262 141 -146 205 -227 523 -673 359 -503 595 -746 852
-878 173 -90 322 -121 560 -120 179 1 328 19 573 68 163 33 265 58 829 204
326 84 552 122 738 124 168 2 220 -10 339 -75 112 -62 223 -161 521 -466 297
-304 424 -424 606 -576 486 -405 972 -625 1587 -718 122 -19 185 -22 442 -22
260 0 320 3 453 22 350 52 595 121 1187 337 395 143 483 174 716 245 752 233
1509 301 2389 215 569 -56 1491 -205 2080 -335 47 -10 211 -46 365 -80 459
-100 1128 -267 1710 -426 426 -117 1214 -348 1458 -428 43 -14 80 -26 82 -26
3 0 5 2034 5 4520 l0 4520 -9600 0 -9600 0 0 -2584z"/>
</g>
</svg>
