<?xml version="1.0" encoding="utf-8"?>
<!-- Generator: Adobe Illustrator 19.0.0, SVG Export Plug-In . SVG Version: 6.00 Build 0)  -->
<svg version="1.1" xmlns="http://www.w3.org/2000/svg" xmlns:xlink="http://www.w3.org/1999/xlink" x="0px" y="0px"
	 viewBox="0 0 500 500" style="enable-background:new 0 0 500 500;" xml:space="preserve">
<style type="text/css">
	.st0{clip-path:url(#XMLID_91_);}
	.st1{fill:#FEFEFE;}
	.st2{fill:#1C6C66;}
</style>
<g id="Capa_1">
</g>
<g id="Capa_2">
	<g id="XMLID_74_">
		<defs>
			<rect id="XMLID_70_" x="1.1" y="9.8" width="499.5" height="476.8"/>
		</defs>
		<clipPath id="XMLID_91_">
			<use xlink:href="#XMLID_70_"  style="overflow:visible;"/>
		</clipPath>
		<g id="XMLID_76_" class="st0">
			<g id="XMLID_36_">
				<path id="XMLID_61_" class="st1" d="M241.7,890.6c-164.2,0-328.4-0.2-492.6,0.4c-13.5,0-16.3-2.7-16.3-16.3
					c0.5-329.9,0.5-659.9,0-989.8c0-13.5,2.7-16.3,16.3-16.3c329.9,0.5,659.9,0.5,989.8,0c13.5,0,16.3,2.7,16.3,16.3
					c-0.5,329.9-0.5,659.9,0,989.8c0,13.5-2.7,16.3-16.3,16.3C573.2,890.4,407.4,890.6,241.7,890.6z M100.9,499.7l0.3,0.3
					c-10.4-10.4-19.7-7.1-22.5,5.4c-2.6,12.2-0.9,25.4-0.1,38.1c0.4,6.2,4.1,11.2,11.5,11.5c6.3,0.3,14-0.2,14.8-7
					C107,531.9,113.5,514.8,100.9,499.7z M137.4,545.4c9.8,12.9,25.3-6.2,34.9,7.9c-10-23.5-9.8-23.4-2.8-47.9
					c2.2-7.7-0.5-10.5-7.5-5.2c-3.8,2.9-4.3-0.1-7.2-1.6c-26.3-13.6-41.7-3.8-41.6,25.7c0,6.8,0,13.6,0.7,20.3
					c0.6,5.8,4.5,9.3,10.4,10.2c7.7,1.2,13.5-0.5,13.6-9.9L137.4,545.4z M288.6,255.2c1.3,1.7,2.7,3.4,4,5.2
					c-1.4,3.5-2.2,7.5-4.4,10.3c-27.1,32.9-16.4,70.1-0.4,99.3c11.3,20.7,8.5,27.5-5.6,39.2c-35.2,29.2-74.1,49.3-122,50.3
					c89,47.6,212.7,14,275.2-73.9c66.1-92.9,51.3-221.4-33-298.4c-80.9-73.9-216-74.4-296.8-4.2c-76.9,66.7-105,191.3-57.4,262.6
					c11.8-19.8,25.3-37.9,41.9-53.2c13.2-12.2,24.7-29.8,42.5-32.4c34.2-5,69.6-3.8,100.1,14.7c15.6,9.4,25.5,9,37.3-3.4
					C275.5,265.4,282.3,260.6,288.6,255.2z M327.4,542.6c-2.7,0.1-5.3,0.1-8,0.2c0-11.2-0.1-22.5,0-33.7c0.1-8.5-1.7-15.3-12.2-14.6
					c-9.2,0.6-16.1,3.9-15.8,14.9c0.2,7.5,1,15.3-0.3,22.6c-0.9,4.8,6.2,14.1-7.4,13.9c-11.6-0.1-13.1-4.9-13.5-14.8
					c-0.5-11.7,4.3-24.5-5.8-39.1c-5.4,20.9-2.5,38.7-3,56.2c-0.2,7.8,6.7,6.3,11.8,6.6c23.4,1.4,46-7.7,70.6-1.5
					c7.9,2,20-4.9,32.1,1c8.3,4,15.2-4.4,15.6-14.2c0.5-9.8,0.8-19.6,0-29.4c-1.3-16.6-13.1-22.2-26.1-11.5c-5.5,4.5-6.8,8.5-12,0.1
					c-4-6.6-11.8-6.2-18.4-3.6c-7.8,3.1-7.6,10.3-7.5,17.2C327.5,522.8,327.4,532.7,327.4,542.6z M64.3,547.1
					c5.3-13.1,6.8-26.4,6-39.8c-0.7-10.8-8.7-12.1-17.8-12.7c-11.9-0.8-11.2,6.5-11.1,14.4c0.2,12.1-0.1,24.1,0.1,36.2
					c0.1,3.3-1.5,8.3,4.1,8.8c5.4,0.4,4.6-4.2,5.2-7.7c0.8-4.6-3.1-12.3,4.2-13.1C63.4,532.4,63,540.8,64.3,547.1z M209.6,553.4
					c-2.9-12.7-19.1-2.1-19-17.1c0.1-14.4,16.6-3.4,17.9-13c-3.5-8.2-15.7,0.5-17.4-10.6c-2.3-14.8,16.3-4.1,17.4-16
					c-9.1-1.2-23.2-6.1-25.3,2.5c-3.9,16.2-4.1,34.8-0.1,51.1C185.5,560.2,199.5,553.9,209.6,553.4z M227.6,557.8
					c10.7-21.2-4.7-44.4,12.9-60.9c-8.8-2.6-16.8-2.8-26.2,0.1C230.9,513.8,215.9,536.7,227.6,557.8z"/>
				<path id="XMLID_58_" class="st2" d="M288.6,255.2c-6.3,5.4-13.1,10.2-18.7,16.2c-11.7,12.4-21.7,12.8-37.3,3.4
					c-30.5-18.5-65.9-19.7-100.1-14.7c-17.8,2.6-29.3,20.2-42.5,32.4c-16.6,15.3-30.1,33.4-41.9,53.2C0.6,274.3,28.7,149.7,105.6,83
					c80.9-70.2,215.9-69.7,296.8,4.2c84.3,77,99.1,205.5,33,298.4c-62.6,87.9-186.2,121.5-275.2,73.9c47.9-1,86.8-21.2,122-50.3
					c14.1-11.7,17-18.5,5.6-39.2c-16-29.2-26.7-66.4,0.4-99.3c2.3-2.8,3-6.8,4.4-10.3c2.7-2.4,6.2-6.1,3.7-8.9
					C292.6,247.5,290.8,252.9,288.6,255.2z M332.4,318.4c20.1-13,28.1-33.7,22.6-54.6c-4.5-17.2,2.9-24.2,12.9-32.8
					c23.6-20.2,42-42.8,42.7-76.5c0.3-14.6-3.7-17.7-17.6-17.7c-38,0-63.2,21.3-86,47.8c-5.9,6.9-9.9,12.9-22.7,6.2
					c-18-9.4-45.6,3.6-57.8,22.6c31.4-4.7,50.7,10,74.1,30.7c25.6,22.6,37.2,42.8,32.2,74.7c-1.1-0.2-2.1-0.3-3.2-0.5
					c0.2,0.9,0.4,1.9,0.6,2.8C331,320.3,331.7,319.4,332.4,318.4z"/>
				<path id="XMLID_53_" class="st2" d="M327.4,542.6c0-9.9,0.1-19.8,0-29.7c0-6.9-0.2-14.1,7.5-17.2c6.6-2.6,14.4-3,18.4,3.6
					c5.2,8.5,6.4,4.5,12-0.1c13-10.6,24.8-5,26.1,11.5c0.8,9.7,0.5,19.6,0,29.4c-0.5,9.8-7.4,18.2-15.6,14.2
					c-12.1-5.9-24.2,0.9-32.1-1c-24.6-6.1-47.2,2.9-70.6,1.5c-5-0.3-12,1.2-11.8-6.6c0.5-17.4-2.5-35.2,3-56.2
					c10.1,14.5,5.3,27.3,5.8,39.1c0.5,9.9,2,14.6,13.5,14.8c13.6,0.2,6.6-9.2,7.4-13.9c1.3-7.3,0.5-15,0.3-22.6
					c-0.3-10.9,6.6-14.3,15.8-14.9c10.5-0.7,12.3,6.1,12.2,14.6c-0.1,11.2,0,22.5,0,33.7C322.1,542.7,324.8,542.7,327.4,542.6z
					 M301.4,497.4c0,16.4-0.1,28.2,0,40.1c0,3.9,1.1,7.7,6,7.4c1.8-0.1,4.9-2.3,4.9-3.4C311.9,527.8,319.6,512.5,301.4,497.4z
					 M382.7,524.4c-2.9-7.3,4.7-20.7-6-20.9c-10.4-0.2-6.2,13.1-6.1,20.5c0.1,7.4-4.6,20.7,5.9,20.6
					C387.6,544.5,379.4,531.1,382.7,524.4z M342.7,546.7c0.3-10.2-2.9-20.9,13.9-17.6c5.5,1.1,4.9-8.5,2.5-14
					c-12.4,5.5-9.8-11.7-20.1-12.8C335.8,517.4,334,531.6,342.7,546.7z"/>
				<path id="XMLID_52_" class="st2" d="M137.9,545c-0.1,9.4-5.9,11-13.6,9.9c-5.9-0.9-9.8-4.4-10.4-10.2
					c-0.7-6.7-0.7-13.5-0.7-20.3c-0.1-29.4,15.3-39.3,41.6-25.7c2.9,1.5,3.3,4.5,7.2,1.6c7-5.3,9.7-2.6,7.5,5.2
					c-7,24.5-7.2,24.4,2.8,47.9c-9.6-14.1-25.1,5-34.9-7.9c3.1-26.4,3.1-26.4-12.7-42.5c-4.5,10.5-2.3,20.9-2.8,31
					C121.3,546.1,128.5,547.2,137.9,545z"/>
				<path id="XMLID_51_" class="st2" d="M64.3,547.1c-1.3-6.4-0.9-14.8-9.3-13.9c-7.2,0.7-3.4,8.4-4.2,13.1
					c-0.6,3.6,0.2,8.2-5.2,7.7c-5.5-0.4-4-5.5-4.1-8.8c-0.2-12.1,0-24.1-0.1-36.2c-0.1-7.9-0.9-15.1,11.1-14.4
					c9.2,0.6,17.1,1.9,17.8,12.7C71.2,520.7,69.7,534,64.3,547.1z"/>
				<path id="XMLID_50_" class="st2" d="M209.6,553.4c-10,0.5-24,6.7-26.4-3.2c-4-16.2-3.8-34.8,0.1-51.1c2.1-8.6,16.2-3.8,25.3-2.5
					c-1.1,12-19.7,1.2-17.4,16c1.7,11.2,13.9,2.4,17.4,10.6c-1.4,9.7-17.8-1.4-17.9,13C190.5,551.3,206.7,540.7,209.6,553.4z"/>
				<path id="XMLID_49_" class="st2" d="M100.9,499.7c12.6,15.1,6.1,32.2,4.1,48.4c-0.8,6.8-8.5,7.3-14.8,7
					c-7.4-0.4-11.1-5.3-11.5-11.5c-0.8-12.7-2.5-26,0.1-38.1c2.7-12.4,12-15.7,22.5-5.3c-15.9,6.3-19.1,23.1-8.1,45.4
					C106.2,531.7,93.9,513.9,100.9,499.7z"/>
				<path id="XMLID_48_" class="st2" d="M227.6,557.8c-11.7-21,3.4-44-13.3-60.8c9.4-3,17.4-2.7,26.2-0.1
					C222.8,513.3,238.3,536.6,227.6,557.8z"/>
				<path id="XMLID_45_" class="st1" d="M332.8,318.9c5.1-31.9-6.6-52.1-32.2-74.7c-23.4-20.7-42.7-35.4-74.1-30.7
					c12.2-19.1,39.8-32,57.8-22.6c12.8,6.7,16.8,0.6,22.7-6.2c22.8-26.5,48-47.8,86-47.8c13.9,0,17.9,3.2,17.6,17.7
					c-0.7,33.7-19.1,56.2-42.7,76.5c-10,8.6-17.5,15.6-12.9,32.8c5.5,21-2.5,41.6-22.6,54.6L332.8,318.9z M373.6,191.9
					c13.4-0.8,20.5-8.3,20.6-20.2c0.1-12.4-8.1-19.9-20.3-19.5c-10.8,0.4-18.4,7-18.7,18.8C354.8,183.7,361.9,190.3,373.6,191.9z"/>
				<path id="XMLID_44_" class="st1" d="M288.6,255.2c2.2-2.3,4-7.7,7.7-3.7c2.6,2.8-0.9,6.4-3.7,8.9
					C291.3,258.7,290,256.9,288.6,255.2z"/>
				<path id="XMLID_43_" class="st1" d="M332.4,318.4c-0.7,1-1.5,1.9-2.2,2.9c-0.2-0.9-0.4-1.9-0.6-2.8c1.1,0.2,2.1,0.3,3.2,0.5
					C332.8,318.9,332.4,318.4,332.4,318.4z"/>
				<path id="XMLID_42_" class="st1" d="M301.4,497.4c18.2,15.1,10.6,30.4,10.9,44c0,1.2-3.1,3.3-4.9,3.4c-4.9,0.3-6-3.4-6-7.4
					C301.3,525.7,301.4,513.8,301.4,497.4z"/>
				<path id="XMLID_41_" class="st1" d="M382.7,524.4c-3.3,6.7,5,20.1-6.2,20.2c-10.5,0.1-5.8-13.2-5.9-20.6
					c-0.1-7.4-4.3-20.7,6.1-20.5C387.4,503.8,379.8,517.1,382.7,524.4z"/>
				<path id="XMLID_40_" class="st1" d="M342.7,546.7c-8.7-15.2-6.9-29.4-3.8-44.4c10.3,1.1,7.7,18.3,20.1,12.8
					c2.4,5.5,3.1,15.1-2.5,14C339.8,525.8,343,536.5,342.7,546.7z"/>
				<path id="XMLID_39_" class="st1" d="M137.9,545c-9.4,2.2-16.5,1.2-15.9-11c0.5-10-1.7-20.4,2.8-31
					c15.7,16.1,15.7,16.1,12.7,42.5C137.4,545.4,137.9,545,137.9,545z"/>
				<path id="XMLID_38_" class="st1" d="M100.9,499.7c-6.9,14.2,5.3,32-7.8,45.7c-10.9-22.3-7.7-39.1,8.1-45.4
					C101.2,500,100.9,499.7,100.9,499.7z"/>
				<path id="XMLID_37_" class="st2" d="M373.6,191.9c-11.6-1.6-18.8-8.2-18.5-20.9c0.3-11.8,7.9-18.4,18.7-18.8
					c12.2-0.5,20.4,7.1,20.3,19.5C394.1,183.6,387,191.1,373.6,191.9z"/>
			</g>
		</g>
	</g>
	<g id="XMLID_73_">
	</g>
	<g id="XMLID_75_">
	</g>
	<g id="XMLID_77_">
	</g>
	<g id="XMLID_78_">
	</g>
	<g id="XMLID_79_">
	</g>
	<g id="XMLID_80_">
	</g>
	<g id="XMLID_81_">
	</g>
	<g id="XMLID_82_">
	</g>
	<g id="XMLID_83_">
	</g>
	<g id="XMLID_84_">
	</g>
	<g id="XMLID_85_">
	</g>
	<g id="XMLID_86_">
	</g>
	<g id="XMLID_87_">
	</g>
	<g id="XMLID_88_">
	</g>
	<g id="XMLID_89_">
	</g>
</g>
</svg>
